<svg width="113" height="128" viewBox="0 0 113 128" fill="none" xmlns="http://www.w3.org/2000/svg">
<path d="M3 33.7364L55.7037 3.45979L108.407 33.7364V94.2636L55.7037 124.54L3 94.2636V33.7364Z" fill="#C8D8EB" stroke="#B4C2D3" stroke-width="6"/>
<path d="M18.8184 74H31.5195V70.6094H23.2207V54.0938H18.8184V74ZM33.7754 74H40.5566C43.1908 74 45.3464 73.1751 47.0234 71.5254C48.7096 69.8757 49.5527 67.5788 49.5527 64.6348V63.4316C49.5527 60.4876 48.7096 58.1953 47.0234 56.5547C45.3464 54.9141 43.1908 54.0938 40.5566 54.0938H33.7754V74ZM38.123 70.8008V57.3477H40.3516C41.7734 57.3477 42.9173 57.8353 43.7832 58.8105C44.6491 59.7767 45.082 61.2396 45.082 63.1992V64.9082C45.082 66.8587 44.6536 68.3307 43.7969 69.3242C42.9401 70.3086 41.7917 70.8008 40.3516 70.8008H38.123ZM51.8906 64.6348C51.8906 67.8704 52.6745 70.2995 54.2422 71.9219C55.819 73.5443 57.9154 74.3555 60.5312 74.3555C62.9922 74.3555 64.9108 73.7311 66.2871 72.4824C67.6634 71.2246 68.3789 69.5885 68.4336 67.5742L68.4473 66.8496H64.0996V67.5059C64.054 68.6452 63.7441 69.5339 63.1699 70.1719C62.5957 70.8008 61.7344 71.1152 60.5859 71.1152C59.3008 71.1152 58.2936 70.6413 57.5645 69.6934C56.8353 68.7454 56.4707 67.3145 56.4707 65.4004V62.6934C56.4707 60.679 56.8353 59.2253 57.5645 58.332C58.3027 57.4388 59.2917 56.9922 60.5312 56.9922C61.7344 56.9922 62.6276 57.293 63.2109 57.8945C63.8034 58.4961 64.0996 59.3529 64.0996 60.4648V61.2715H68.4473V60.6426C68.4473 58.528 67.7409 56.8509 66.3281 55.6113C64.9154 54.3626 62.9831 53.7383 60.5312 53.7383C57.9701 53.7383 55.8874 54.5404 54.2832 56.1445C52.6882 57.7487 51.8906 60.1868 51.8906 63.459V64.6348ZM70.9629 74H74.7773V61.627C74.7773 61.3171 74.7682 60.9707 74.75 60.5879C74.7409 60.196 74.7227 59.8633 74.6953 59.5898H74.8047C74.8411 59.8633 74.9049 60.196 74.9961 60.5879C75.0964 60.9707 75.1966 61.3171 75.2969 61.627L79.6309 74H83.3633L87.7109 61.627C87.8112 61.3171 87.9069 60.9798 87.998 60.6152C88.0892 60.2415 88.1621 59.8997 88.2168 59.5898H88.3125C88.276 59.8906 88.2533 60.2279 88.2441 60.6016C88.235 60.9753 88.2305 61.3171 88.2305 61.627V74H92.5781V54.0938H86.6992L82.2695 66.5078C82.1602 66.8177 82.0645 67.1139 81.9824 67.3965C81.9004 67.679 81.832 67.9889 81.7773 68.3262H81.6953C81.6406 67.9889 81.5723 67.679 81.4902 67.3965C81.4082 67.1139 81.3125 66.8177 81.2031 66.5078L76.7871 54.0938H70.9629V74Z" fill="#484D54"/>
</svg>
