<svg width="113" height="128" viewBox="0 0 113 128" fill="none" xmlns="http://www.w3.org/2000/svg">
<path d="M3 33.7364L55.7037 3.45979L108.407 33.7364V94.2636L55.7037 124.54L3 94.2636V33.7364Z" fill="#C8D8EB" stroke="#B4C2D3" stroke-width="6"/>
<path d="M17.2461 57.4844H22.9473V74H27.377V57.4844H33.0645V54.0938H17.2461V57.4844ZM35.1152 74H41.8965C44.5306 74 46.6862 73.1751 48.3633 71.5254C50.0495 69.8757 50.8926 67.5788 50.8926 64.6348V63.4316C50.8926 60.4876 50.0495 58.1953 48.3633 56.5547C46.6862 54.9141 44.5306 54.0938 41.8965 54.0938H35.1152V74ZM39.4629 70.8008V57.3477H41.6914C43.1133 57.3477 44.2572 57.8353 45.123 58.8105C45.9889 59.7767 46.4219 61.2396 46.4219 63.1992V64.9082C46.4219 66.8587 45.9935 68.3307 45.1367 69.3242C44.2799 70.3086 43.1315 70.8008 41.6914 70.8008H39.4629ZM53.2305 64.6348C53.2305 67.8704 54.0143 70.2995 55.582 71.9219C57.1589 73.5443 59.2552 74.3555 61.8711 74.3555C64.332 74.3555 66.2507 73.7311 67.627 72.4824C69.0033 71.2246 69.7188 69.5885 69.7734 67.5742L69.7871 66.8496H65.4395V67.5059C65.3939 68.6452 65.084 69.5339 64.5098 70.1719C63.9355 70.8008 63.0742 71.1152 61.9258 71.1152C60.6406 71.1152 59.6335 70.6413 58.9043 69.6934C58.1751 68.7454 57.8105 67.3145 57.8105 65.4004V62.6934C57.8105 60.679 58.1751 59.2253 58.9043 58.332C59.6426 57.4388 60.6315 56.9922 61.8711 56.9922C63.0742 56.9922 63.9674 57.293 64.5508 57.8945C65.1432 58.4961 65.4395 59.3529 65.4395 60.4648V61.2715H69.7871V60.6426C69.7871 58.528 69.0807 56.8509 67.668 55.6113C66.2552 54.3626 64.3229 53.7383 61.8711 53.7383C59.3099 53.7383 57.2272 54.5404 55.623 56.1445C54.028 57.7487 53.2305 60.1868 53.2305 63.459V64.6348ZM72.3027 74H76.1172V61.627C76.1172 61.3171 76.1081 60.9707 76.0898 60.5879C76.0807 60.196 76.0625 59.8633 76.0352 59.5898H76.1445C76.181 59.8633 76.2448 60.196 76.3359 60.5879C76.4362 60.9707 76.5365 61.3171 76.6367 61.627L80.9707 74H84.7031L89.0508 61.627C89.151 61.3171 89.2467 60.9798 89.3379 60.6152C89.429 60.2415 89.502 59.8997 89.5566 59.5898H89.6523C89.6159 59.8906 89.5931 60.2279 89.584 60.6016C89.5749 60.9753 89.5703 61.3171 89.5703 61.627V74H93.918V54.0938H88.0391L83.6094 66.5078C83.5 66.8177 83.4043 67.1139 83.3223 67.3965C83.2402 67.679 83.1719 67.9889 83.1172 68.3262H83.0352C82.9805 67.9889 82.9121 67.679 82.8301 67.3965C82.748 67.1139 82.6523 66.8177 82.543 66.5078L78.127 54.0938H72.3027V74Z" fill="#484D54"/>
</svg>
